<?xml version="1.0" encoding="UTF-8"?>
<!DOCTYPE svg PUBLIC "-//W3C//DTD SVG 1.1//EN" "http://www.w3.org/Graphics/SVG/1.1/DTD/svg11.dtd">
<!-- Creator: CorelDRAW -->
<svg xmlns="http://www.w3.org/2000/svg" xml:space="preserve" width="850px" height="850px" version="1.1" style="shape-rendering:geometricPrecision; text-rendering:geometricPrecision; image-rendering:optimizeQuality; fill-rule:evenodd; clip-rule:evenodd"
viewBox="0 0 850 850"
 xmlns:xlink="http://www.w3.org/1999/xlink">
 <defs>
  <style type="text/css">
   <![CDATA[
    .fil0 {fill:#AADDE3}
    .fil1 {fill:#52ABB3;fill-rule:nonzero}
   ]]>
  </style>
 </defs>
 <g id="Layer_x0020_1">
  <metadata id="CorelCorpID_0Corel-Layer"/>
  <circle class="fil0" cx="425" cy="425" r="425"/>
  <path class="fil1" d="M425 681c-65,0 -127,-24 -174,-68 32,-14 95,-40 149,-56 101,-31 189,-36 218,-16 10,7 16,18 16,32 -8,12 -18,23 -28,33 -49,48 -113,75 -181,75zm55 -115c-30,0 -52,14 -52,32 0,18 23,33 52,33 30,0 53,-15 53,-33 0,-18 -23,-32 -53,-32zm-38 32c0,-9 16,-18 38,-18 23,0 39,9 39,18 0,9 -16,19 -39,19 -22,0 -38,-10 -38,-19zm-170 -214c18,0 32,14 32,33 0,18 -14,32 -32,32 -18,0 -33,-14 -33,-32 0,-18 15,-33 33,-33zm0 -14c-26,0 -47,21 -47,47 0,13 5,24 14,33 9,8 21,13 33,13 26,0 46,-20 46,-46 0,-13 -5,-24 -13,-33 -9,-9 -21,-14 -33,-14zm-32 232c-27,-27 -46,-60 -58,-96 31,-6 115,-22 196,-33 125,-18 239,-17 298,2 -5,28 -16,55 -31,80 -3,-10 -9,-19 -19,-25 -33,-23 -124,-19 -230,13 -58,18 -125,46 -156,59zm-62 -109c-6,-22 -9,-45 -9,-68 0,-37 8,-73 23,-105 15,4 43,11 70,16 3,16 24,27 51,27 18,0 33,-5 42,-13 77,10 238,18 303,-32 15,34 23,70 23,107 0,12 -1,24 -2,36 -63,-19 -175,-20 -303,-2 -83,12 -168,28 -198,34zm97 -162c0,0 0,-1 0,-1 2,-8 17,-17 38,-17 22,0 38,10 38,18 0,9 -16,18 -38,18 -22,0 -37,-9 -38,-18zm-12 -9c-24,-5 -50,-11 -65,-15 12,-23 27,-44 46,-63 8,-8 16,-15 25,-22 0,0 0,1 0,1 1,0 72,27 139,45 41,11 150,36 189,10 8,-5 17,-11 23,-19 12,15 23,30 31,47 -41,34 -143,48 -287,31 1,-2 1,-4 1,-6 0,-18 -22,-32 -52,-32 -24,0 -44,9 -50,23zm19 -109c42,-29 91,-44 143,-44 68,0 132,27 181,75 1,2 3,3 4,5 -3,7 -14,13 -20,17 -47,31 -236,-27 -308,-53z"/>
 </g>
</svg>
